<svg width="17" height="14" viewBox="0 0 17 14" fill="none" xmlns="http://www.w3.org/2000/svg">
<path d="M15.8125 0.8125H1.1875C0.876367 0.8125 0.625 1.06387 0.625 1.375V12.625C0.625 12.9361 0.876367 13.1875 1.1875 13.1875H15.8125C16.1236 13.1875 16.375 12.9361 16.375 12.625V1.375C16.375 1.06387 16.1236 0.8125 15.8125 0.8125ZM14.3922 2.72676L8.84629 7.04219C8.70918 7.14941 8.51758 7.14941 8.38047 7.04219L2.83281 2.72676C2.8119 2.71062 2.79656 2.68834 2.78895 2.66305C2.78133 2.63775 2.78182 2.61071 2.79035 2.58571C2.79888 2.5607 2.81502 2.539 2.8365 2.52363C2.85798 2.50826 2.88374 2.5 2.91016 2.5H14.3148C14.3413 2.5 14.367 2.50826 14.3885 2.52363C14.41 2.539 14.4261 2.5607 14.4347 2.58571C14.4432 2.61071 14.4437 2.63775 14.4361 2.66305C14.4284 2.68834 14.4131 2.71062 14.3922 2.72676Z" fill="white"/>
</svg>
