<svg width="18" height="18" viewBox="0 0 18 18" fill="none" xmlns="http://www.w3.org/2000/svg">
<g clip-path="url(#clip0)">
<path d="M17.3571 1.9248H0.642857C0.287277 1.9248 0 2.21208 0 2.56766V15.4248C0 15.7804 0.287277 16.0677 0.642857 16.0677H17.3571C17.7127 16.0677 18 15.7804 18 15.4248V2.56766C18 2.21208 17.7127 1.9248 17.3571 1.9248ZM16.5536 4.1507V14.6212H1.44643V4.1507L0.891964 3.71878L1.68147 2.70427L2.54129 3.37324H15.4607L16.3205 2.70427L17.11 3.71878L16.5536 4.1507ZM15.4607 3.37123L9 8.39356L2.53929 3.37123L1.67946 2.70226L0.889955 3.71677L1.44442 4.14869L8.30692 9.4844C8.50428 9.63773 8.74707 9.72096 8.99699 9.72096C9.2469 9.72096 9.4897 9.63773 9.68705 9.4844L16.5536 4.1507L17.108 3.71878L16.3185 2.70427L15.4607 3.37123Z" fill="#008EFE"/>
</g>
<defs>
<clipPath id="clip0">
<rect width="18" height="18" fill="white"/>
</clipPath>
</defs>
</svg>
