<svg width="18" height="18" viewBox="0 0 18 18" fill="none" xmlns="http://www.w3.org/2000/svg">
<path d="M16.5533 12.3737H15.4684V9.56124H9.68272V7.71303H14.464C14.6408 7.71303 14.7854 7.56839 14.7854 7.3916V2.08803C14.7854 1.91124 14.6408 1.7666 14.464 1.7666H3.5354C3.35861 1.7666 3.21397 1.91124 3.21397 2.08803V7.3916C3.21397 7.56839 3.35861 7.71303 3.5354 7.71303H8.31665V9.56124H2.53094V12.3737H1.44611C1.35772 12.3737 1.2854 12.4461 1.2854 12.5345V16.0702C1.2854 16.1586 1.35772 16.2309 1.44611 16.2309H4.98183C5.07022 16.2309 5.14254 16.1586 5.14254 16.0702V12.5345C5.14254 12.4461 5.07022 12.3737 4.98183 12.3737H3.89701V10.9273H8.31665V12.3737H7.23183C7.14344 12.3737 7.07112 12.4461 7.07112 12.5345V16.0702C7.07112 16.1586 7.14344 16.2309 7.23183 16.2309H10.7675C10.8559 16.2309 10.9283 16.1586 10.9283 16.0702V12.5345C10.9283 12.4461 10.8559 12.3737 10.7675 12.3737H9.68272V10.9273H14.1024V12.3737H13.0175C12.9292 12.3737 12.8568 12.4461 12.8568 12.5345V16.0702C12.8568 16.1586 12.9292 16.2309 13.0175 16.2309H16.5533C16.6417 16.2309 16.714 16.1586 16.714 16.0702V12.5345C16.714 12.4461 16.6417 12.3737 16.5533 12.3737ZM3.85683 14.8909C3.85683 14.9211 3.83272 14.9452 3.80259 14.9452H2.62335C2.59321 14.9452 2.56911 14.9211 2.56911 14.8909V13.7117C2.56911 13.6816 2.59321 13.6574 2.62335 13.6574H3.80259C3.83272 13.6574 3.85683 13.6816 3.85683 13.7117V14.8909ZM9.64254 14.8909C9.64254 14.9211 9.61844 14.9452 9.5883 14.9452H8.40906C8.37893 14.9452 8.35482 14.9211 8.35482 14.8909V13.7117C8.35482 13.6816 8.37893 13.6574 8.40906 13.6574H9.5883C9.61844 13.6574 9.64254 13.6816 9.64254 13.7117V14.8909ZM4.49969 6.42732V3.05232H13.4997V6.42732H4.49969ZM15.4283 14.8909C15.4283 14.9211 15.4042 14.9452 15.374 14.9452H14.1948C14.1646 14.9452 14.1405 14.9211 14.1405 14.8909V13.7117C14.1405 13.6816 14.1646 13.6574 14.1948 13.6574H15.374C15.4042 13.6574 15.4283 13.6816 15.4283 13.7117V14.8909ZM5.94612 4.73982C5.94612 4.95294 6.03078 5.15733 6.18148 5.30803C6.33218 5.45873 6.53657 5.54339 6.74969 5.54339C6.96281 5.54339 7.1672 5.45873 7.3179 5.30803C7.4686 5.15733 7.55326 4.95294 7.55326 4.73982C7.55326 4.5267 7.4686 4.3223 7.3179 4.17161C7.1672 4.02091 6.96281 3.93624 6.74969 3.93624C6.53657 3.93624 6.33218 4.02091 6.18148 4.17161C6.03078 4.3223 5.94612 4.5267 5.94612 4.73982Z" fill="#008EFE"/>
</svg>
