<svg width="18" height="18" viewBox="0 0 18 18" fill="none" xmlns="http://www.w3.org/2000/svg">
<path d="M17.4261 8.74019L0.621421 0.314745C0.553117 0.280593 0.474769 0.272558 0.400438 0.290638C0.317943 0.311032 0.246889 0.363284 0.202836 0.435953C0.158783 0.508622 0.145319 0.595787 0.165394 0.678361L1.89709 7.75381C1.92321 7.86028 2.00155 7.94666 2.10602 7.98082L5.07321 8.99934L2.10803 10.0179C2.00356 10.054 1.92522 10.1384 1.90111 10.2449L0.165394 17.3304C0.147313 17.4047 0.155349 17.483 0.189501 17.5493C0.267849 17.708 0.460706 17.7723 0.621421 17.694L17.4261 9.31675C17.4884 9.28662 17.5386 9.23439 17.5708 9.17412C17.6491 9.01341 17.5848 8.82055 17.4261 8.74019ZM2.1462 15.3174L3.15669 11.1871L9.08704 9.15202C9.13325 9.13595 9.17142 9.09979 9.18749 9.05158C9.21562 8.9672 9.17142 8.8768 9.08704 8.84666L3.15669 6.81363L2.15022 2.69934L14.7663 9.02546L2.1462 15.3174Z" fill="#008EFE"/>
</svg>
