<svg width="18" height="18" viewBox="0 0 18 18" fill="none" xmlns="http://www.w3.org/2000/svg">
<path d="M11.6652 12.1543C11.6504 12.1336 11.6307 12.1167 11.608 12.1052C11.5853 12.0937 11.5601 12.0878 11.5346 12.088H10.6467C10.5161 12.088 10.4398 12.2366 10.5161 12.3431L11.9987 14.3942C12.063 14.4826 12.1936 14.4826 12.2579 14.3942L14.5521 11.2201C14.6284 11.1136 14.5521 10.965 14.4215 10.965H13.5315C13.4793 10.965 13.4311 10.9891 13.4009 11.0313L12.1253 12.7951L11.6652 12.1543ZM12.5351 4.85784V3.89355C12.5351 3.80516 12.4628 3.73284 12.3744 3.73284H4.66009C4.57169 3.73284 4.49937 3.80516 4.49937 3.89355V4.85784C4.49937 4.94623 4.57169 5.01856 4.66009 5.01856H12.3744C12.4628 5.01856 12.5351 4.94623 12.5351 4.85784ZM4.66009 6.6257C4.57169 6.6257 4.49937 6.69802 4.49937 6.78641V7.7507C4.49937 7.83909 4.57169 7.91141 4.66009 7.91141H8.35652C8.44491 7.91141 8.51723 7.83909 8.51723 7.7507V6.78641C8.51723 6.69802 8.44491 6.6257 8.35652 6.6257H4.66009ZM8.35652 15.8266H2.89223V1.68373H14.1422V7.63016C14.1422 7.71856 14.2146 7.79088 14.3029 7.79088H15.4279C15.5163 7.79088 15.5887 7.71856 15.5887 7.63016V0.880162C15.5887 0.524581 15.3014 0.237305 14.9458 0.237305H2.08866C1.73308 0.237305 1.4458 0.524581 1.4458 0.880162V16.6302C1.4458 16.9857 1.73308 17.273 2.08866 17.273H8.35652C8.44491 17.273 8.51723 17.2007 8.51723 17.1123V15.9873C8.51723 15.8989 8.44491 15.8266 8.35652 15.8266ZM16.4445 9.38195L12.5873 8.04199C12.5692 8.03597 12.5532 8.03396 12.5351 8.03396C12.517 8.03396 12.4989 8.03597 12.4829 8.04199L8.62571 9.38195C8.5942 9.39265 8.56681 9.41292 8.54737 9.43993C8.52792 9.46694 8.51739 9.49934 8.51723 9.53262V14.577C8.51723 14.6273 8.53933 14.6735 8.57951 14.7036L12.4366 17.721C12.4648 17.7431 12.5009 17.7552 12.5351 17.7552C12.5692 17.7552 12.6054 17.7431 12.6335 17.721L16.4907 14.7036C16.5288 14.6735 16.5529 14.6273 16.5529 14.577V9.53262C16.5529 9.46431 16.5087 9.40405 16.4445 9.38195ZM15.3074 14.0527L12.5351 16.2203L9.76277 14.0527V10.302L12.5351 9.33775L15.3074 10.302V14.0527Z" fill="#008EFE"/>
</svg>
