<svg width="18" height="18" viewBox="0 0 18 18" fill="none" xmlns="http://www.w3.org/2000/svg">
<path d="M9.08018 12.2369C9.08018 12.3253 9.14849 12.3976 9.23085 12.3976H12.9474C13.0297 12.3976 13.098 12.3253 13.098 12.2369V11.2726C13.098 11.1842 13.0297 11.1119 12.9474 11.1119H9.23085C9.14849 11.1119 9.08018 11.1842 9.08018 11.2726V12.2369ZM5.16478 12.3594L9.02192 9.12506C9.09826 9.06077 9.09826 8.94224 9.02192 8.87796L5.16478 5.64559C5.1415 5.62579 5.11302 5.61309 5.08273 5.60899C5.05244 5.60489 5.02161 5.60957 4.9939 5.62248C4.96619 5.63538 4.94277 5.65596 4.92641 5.68178C4.91005 5.7076 4.90144 5.73757 4.90161 5.76814V7.02774C4.90161 7.07595 4.9217 7.12015 4.95987 7.15028L7.16567 9.00251L4.95987 10.8547C4.94191 10.8698 4.92741 10.8885 4.91736 10.9097C4.9073 10.9308 4.90193 10.9539 4.90161 10.9773V12.2369C4.90161 12.3735 5.06032 12.4478 5.16478 12.3594ZM16.3927 0.966797H1.60697C1.25139 0.966797 0.964111 1.25407 0.964111 1.60965V16.3954C0.964111 16.7509 1.25139 17.0382 1.60697 17.0382H16.3927C16.7483 17.0382 17.0355 16.7509 17.0355 16.3954V1.60965C17.0355 1.25407 16.7483 0.966797 16.3927 0.966797ZM15.5891 15.5918H2.41054V2.41323H15.5891V15.5918Z" fill="#008EFE"/>
</svg>
