<svg width="14" height="16" viewBox="0 0 14 16" fill="none" xmlns="http://www.w3.org/2000/svg">
<path d="M12.3693 1.66735C10.4769 -0.225055 7.39518 -0.225055 5.50478 1.66735L0.261479 6.90663C0.227328 6.94078 0.209247 6.98699 0.209247 7.0352C0.209247 7.08342 0.227328 7.12962 0.261479 7.16378L1.00277 7.90507C1.03666 7.93881 1.08253 7.95775 1.13034 7.95775C1.17816 7.95775 1.22402 7.93881 1.25791 7.90507L6.50121 2.66579C7.1521 2.0149 8.01795 1.65731 8.93804 1.65731C9.85813 1.65731 10.724 2.0149 11.3729 2.66579C12.0238 3.31668 12.3813 4.18253 12.3813 5.10061C12.3813 6.0207 12.0238 6.88454 11.3729 7.53543L6.02911 12.8772L5.16327 13.743C4.35367 14.5526 3.03782 14.5526 2.22822 13.743C1.83648 13.3513 1.62152 12.831 1.62152 12.2765C1.62152 11.722 1.83648 11.2017 2.22822 10.81L7.52978 5.51043C7.66438 5.37784 7.84117 5.30351 8.03001 5.30351H8.03202C8.22085 5.30351 8.39563 5.37784 8.52822 5.51043C8.66282 5.64503 8.73514 5.82181 8.73514 6.01065C8.73514 6.19748 8.66081 6.37427 8.52822 6.50686L4.19496 10.8361C4.16081 10.8702 4.14273 10.9165 4.14273 10.9647C4.14273 11.0129 4.16081 11.0591 4.19496 11.0932L4.93626 11.8345C4.97014 11.8683 5.01601 11.8872 5.06382 11.8872C5.11164 11.8872 5.15751 11.8683 5.19139 11.8345L9.52264 7.50328C9.92242 7.10351 10.1414 6.57315 10.1414 6.00864C10.1414 5.44414 9.92041 4.91177 9.52264 4.514C8.69697 3.68833 7.35501 3.69034 6.52934 4.514L6.01505 5.0303L1.22978 9.81355C0.905001 10.1364 0.647552 10.5206 0.472367 10.9437C0.297182 11.3668 0.207747 11.8205 0.209247 12.2785C0.209247 13.2086 0.572863 14.0825 1.22978 14.7394C1.91081 15.4185 2.80277 15.758 3.69474 15.758C4.5867 15.758 5.47867 15.4185 6.15768 14.7394L12.3693 8.53185C13.2834 7.61578 13.7896 6.39637 13.7896 5.10061C13.7916 3.80284 13.2854 2.58342 12.3693 1.66735Z" fill="#008EFE"/>
</svg>
