<?xml version="1.0"?>
<svg xmlns="http://www.w3.org/2000/svg" xmlns:xlink="http://www.w3.org/1999/xlink" xmlns:svgjs="http://svgjs.com/svgjs" version="1.1" width="512" height="512" x="0" y="0" viewBox="0 0 36 36" style="enable-background:new 0 0 512 512" xml:space="preserve" class=""><g><path xmlns="http://www.w3.org/2000/svg" d="m27.623 4.167c-6.917 0-11.667-3.583-15-3.583s-10.333 1.916-10.333 17.249 9.417 17.583 13.083 17.583c17.167.001 24.5-31.249 12.25-31.249z" fill="#f2f5f7" data-original="#efefef" style="" class=""/><g xmlns="http://www.w3.org/2000/svg" fill="#a4afc1"><path d="m27.625 10.25h1v2h-1z" fill="#333333" data-original="#a4afc1" style="" class=""/><path d="m24.125 13.25h2v1h-2z" fill="#333333" data-original="#a4afc1" style="" class=""/><path d="m29.875 13.25h2v1h-2z" fill="#333333" data-original="#a4afc1" style="" class=""/></g><circle xmlns="http://www.w3.org/2000/svg" cx="15" cy="11" fill="#f2f5f7" r="4.25" data-original="#f3f3f1" style="" class=""/><path xmlns="http://www.w3.org/2000/svg" d="m19.25 18.75h-8.5c-2.209 0-4 1.791-4 4v3.5h16.5v-3.5c0-2.209-1.791-4-4-4z" fill="#f2f5f7" data-original="#f3f3f1" style="" class=""/><path xmlns="http://www.w3.org/2000/svg" d="m28.25 29.25h-8.5c-.552 0-1-.448-1-1v-4.5c0-.552.448-1 1-1h8.5c.552 0 1 .448 1 1v4.5c0 .552-.448 1-1 1z" fill="#008efe" data-original="#2fdf84" style="" class=""/><path xmlns="http://www.w3.org/2000/svg" d="m13 11c0-1.955 1.328-3.585 3.125-4.08-.361-.1-.733-.17-1.125-.17-2.347 0-4.25 1.903-4.25 4.25s1.903 4.25 4.25 4.25c.392 0 .764-.07 1.125-.17-1.797-.495-3.125-2.125-3.125-4.08z" fill="#cfd1d3" data-original="#d5dbe1" style="" class=""/><path xmlns="http://www.w3.org/2000/svg" d="m13 18.75h-2.25c-2.209 0-4 1.791-4 4v3.5h2.25v-3.5c0-2.209 1.791-4 4-4z" fill="#cfd1d3" data-original="#d5dbe1" style="" class=""/><path xmlns="http://www.w3.org/2000/svg" d="m21 28.25v-4.5c0-.552.448-1 1-1h-2.25c-.552 0-1 .448-1 1v4.5c0 .552.448 1 1 1h2.25c-.552 0-1-.448-1-1z" fill="#0578d3" data-original="#00b871" style="" class=""/><path xmlns="http://www.w3.org/2000/svg" d="m15 16c-2.757 0-5-2.243-5-5s2.243-5 5-5 5 2.243 5 5-2.243 5-5 5zm0-8.5c-1.93 0-3.5 1.57-3.5 3.5s1.57 3.5 3.5 3.5 3.5-1.57 3.5-3.5-1.57-3.5-3.5-3.5z" fill="#333333" data-original="#000000" style="" class=""/><path xmlns="http://www.w3.org/2000/svg" d="m16 27h-9.25c-.414 0-.75-.336-.75-.75v-3.5c0-2.619 2.131-4.75 4.75-4.75h9.25v1.5h-9.25c-1.792 0-3.25 1.458-3.25 3.25v2.75h8.5z" fill="#333333" data-original="#000000" style="" class=""/><path xmlns="http://www.w3.org/2000/svg" d="m28.25 30h-8.5c-.965 0-1.75-.785-1.75-1.75v-4.5c0-.965.785-1.75 1.75-1.75h8.5c.965 0 1.75.785 1.75 1.75v4.5c0 .965-.785 1.75-1.75 1.75zm-8.5-6.5c-.138 0-.25.112-.25.25v4.5c0 .138.112.25.25.25h8.5c.138 0 .25-.112.25-.25v-4.5c0-.138-.112-.25-.25-.25z" fill="#333333" data-original="#000000" style="" class=""/><path xmlns="http://www.w3.org/2000/svg" d="m27 22.75h-1.5v-1.5c0-.138-.112-.25-.25-.25h-2.5c-.138 0-.25.112-.25.25v1.5h-1.5v-1.5c0-.965.785-1.75 1.75-1.75h2.5c.965 0 1.75.785 1.75 1.75z" fill="#333333" data-original="#000000" style="" class=""/><path xmlns="http://www.w3.org/2000/svg" d="m24 27c-.11 0-.22-.024-.322-.073l-5.25-2.5.645-1.354 4.927 2.346 4.928-2.347.645 1.354-5.25 2.5c-.103.05-.213.074-.323.074z" fill="#333333" data-original="#000000" style="" class=""/></g></svg>
