<?xml version="1.0"?>
<svg xmlns="http://www.w3.org/2000/svg" xmlns:xlink="http://www.w3.org/1999/xlink" version="1.1" width="512" height="512" x="0" y="0" viewBox="0 0 36 36" style="enable-background:new 0 0 512 512" xml:space="preserve" class=""><g transform="matrix(1,0,0,1,0,0)"><path xmlns="http://www.w3.org/2000/svg" d="m8.114 5.564c-1.805 6.677-6.504 10.327-7.374 13.545s-.847 10.475 13.955 14.477 19.432-4.501 20.388-8.041c4.481-16.572-23.772-31.807-26.969-19.981z" fill="#f2f5f7" data-original="#efefef" style="" class=""/><path xmlns="http://www.w3.org/2000/svg" d="m29.5 7c-.827 0-1.5-.673-1.5-1.5s.673-1.5 1.5-1.5 1.5.673 1.5 1.5-.673 1.5-1.5 1.5zm0-2c-.276 0-.5.224-.5.5s.224.5.5.5.5-.224.5-.5-.224-.5-.5-.5z" fill="#333333" data-original="#a4afc1" style="" class=""/><path xmlns="http://www.w3.org/2000/svg" d="m15 15.75c1.828 0 4.528.188 6.678.613.912.172 1.572.968 1.572 1.888v6.498c0 .92-.66 1.715-1.572 1.888-2.098.396-4.358.613-6.678.613s-4.58-.217-6.678-.613c-.912-.173-1.572-.968-1.572-1.888v-6.498c0-.92.66-1.715 1.572-1.888 2.15-.425 4.85-.613 6.678-.613z" fill="#f2f5f7" data-original="#f3f3f1" style="" class=""/><path xmlns="http://www.w3.org/2000/svg" d="m27.872 24.204c.039-.23.069-.463.069-.704s-.03-.474-.069-.704l1.185-.88c.193-.144.25-.415.131-.629l-.739-1.324c-.119-.213-.375-.298-.592-.197l-1.339.624c-.347-.3-.738-.54-1.171-.703l-.146-1.506c-.024-.245-.223-.431-.461-.431h-1.479c-.238 0-.438.187-.461.431l-.146 1.506c-.433.163-.824.403-1.171.703l-1.339-.625c-.217-.101-.473-.016-.592.197l-.739 1.324c-.119.213-.062.485.131.629l1.185.88c-.039.23-.069.463-.069.704s.03.474.069.704l-1.185.88c-.193.144-.25.415-.131.629l.739 1.324c.119.213.375.298.592.197l1.339-.624c.347.3.738.54 1.171.703l.146 1.506c.024.245.223.431.461.431h1.479c.238 0 .438-.187.461-.431l.146-1.506c.433-.163.824-.403 1.171-.703l1.339.624c.217.101.473.016.592-.197l.739-1.324c.119-.213.062-.485-.131-.629z" fill="#008efe" data-original="#2fdf84" style="" class=""/><circle xmlns="http://www.w3.org/2000/svg" cx="24" cy="23.507" fill="#f2f5f7" r="1.75" data-original="#f3f3f1" style="" class=""/><path xmlns="http://www.w3.org/2000/svg" d="m10.572 26.637c-.912-.173-1.572-.968-1.572-1.888v-6.498c0-.92.66-1.715 1.572-1.888 1.744-.345 3.844-.532 5.553-.591-.397-.014-.78-.023-1.125-.023-1.828 0-4.528.188-6.678.613-.912.174-1.572.969-1.572 1.889v6.498c0 .92.66 1.715 1.572 1.888 2.098.396 4.358.613 6.678.613.378 0 .751-.015 1.125-.026-1.923-.059-3.796-.256-5.553-.587z" fill="#d9dbdc" data-original="#d5dbe1" style="" class=""/><path xmlns="http://www.w3.org/2000/svg" d="m21.062 25.713c-.119-.213-.062-.485.131-.629l1.185-.88c-.039-.23-.069-.463-.069-.704s.03-.474.069-.704l-1.185-.88c-.193-.144-.25-.415-.131-.629l.556-.995c-.044.035-.093.062-.135.099l-1.339-.625c-.217-.101-.473-.016-.592.197l-.74 1.324c-.119.213-.062.485.131.629l1.185.88c-.039.23-.069.463-.069.704s.03.474.069.704l-1.185.88c-.193.144-.25.415-.131.629l.74 1.324c.119.213.375.298.592.197l1.339-.624c.042.037.092.064.135.099z" fill="#0a70c1" data-original="#00b871" style="" class=""/><path xmlns="http://www.w3.org/2000/svg" d="m24.5 23.507c0-.536.246-1.009.625-1.33-.305-.258-.694-.42-1.125-.42-.966 0-1.75.784-1.75 1.75s.784 1.75 1.75 1.75c.431 0 .82-.162 1.125-.42-.379-.321-.625-.794-.625-1.33z" fill="#d9dbdc" data-original="#d5dbe1" style="" class=""/><path xmlns="http://www.w3.org/2000/svg" d="m24 26c-1.378 0-2.5-1.122-2.5-2.5s1.122-2.5 2.5-2.5 2.5 1.122 2.5 2.5-1.122 2.5-2.5 2.5zm0-3.5c-.551 0-1 .449-1 1s.449 1 1 1 1-.449 1-1-.449-1-1-1z" fill="#333333" data-original="#000000" style="" class=""/><path xmlns="http://www.w3.org/2000/svg" d="m24.739 30h-1.479c-.628 0-1.147-.478-1.208-1.11l-.104-1.068c-.195-.099-.384-.211-.565-.338l-.923.431c-.568.267-1.255.041-1.563-.51l-.74-1.325c-.303-.542-.158-1.228.338-1.596l.831-.617c-.01-.115-.017-.238-.017-.365s.007-.25.017-.365l-.831-.617c-.496-.368-.642-1.055-.338-1.597l.739-1.324c.31-.552.997-.776 1.564-.51l.923.43c.181-.127.37-.24.565-.338l.104-1.069c.061-.634.581-1.112 1.209-1.112h1.479c.628 0 1.147.478 1.208 1.11l.104 1.068c.195.099.384.211.565.338l.923-.431c.568-.266 1.255-.041 1.563.51l.74 1.324c.303.542.157 1.229-.338 1.597l-.831.617c.01.115.017.238.017.365s-.007.25-.017.365l.831.617c.496.368.642 1.055.338 1.597l-.739 1.324c-.309.552-.995.776-1.564.51l-.923-.43c-.181.127-.37.24-.565.338l-.104 1.069c-.061.634-.581 1.112-1.209 1.112zm-1.217-1.5h.956l.122-1.259c.028-.284.214-.528.481-.629.339-.128.657-.319.944-.568.224-.195.541-.239.808-.113l1.09.508.498-.891-.997-.741c-.227-.168-.339-.45-.292-.728.032-.188.058-.38.058-.578s-.026-.39-.058-.578c-.047-.278.065-.56.292-.728l.997-.741-.498-.891-1.09.508c-.268.126-.584.081-.808-.113-.287-.249-.605-.44-.944-.568-.267-.101-.454-.345-.481-.629l-.122-1.261h-.956l-.122 1.259c-.028.284-.214.528-.481.629-.339.128-.657.319-.944.568-.224.194-.541.239-.808.113l-1.09-.508-.498.891.997.741c.227.168.339.45.292.728-.032.188-.058.38-.058.578s.026.39.058.578c.047.278-.065.56-.292.728l-.997.741.498.891 1.09-.508c.268-.126.584-.082.808.113.287.249.605.44.944.568.267.101.454.345.481.629zm5.088-2.813h.01z" fill="#333333" data-original="#000000" style="" class=""/><path xmlns="http://www.w3.org/2000/svg" d="m19.25 16.25c-.414 0-.75-.336-.75-.75v-4.5c0-1.93-1.57-3.5-3.5-3.5s-3.5 1.57-3.5 3.5v4.5c0 .414-.336.75-.75.75s-.75-.336-.75-.75v-4.5c0-2.757 2.243-5 5-5s5 2.243 5 5v4.5c0 .414-.336.75-.75.75z" fill="#333333" data-original="#000000" style="" class=""/><path xmlns="http://www.w3.org/2000/svg" d="m15 28c-2.321 0-4.615-.211-6.817-.626-1.265-.239-2.183-1.343-2.183-2.625v-6.497c0-1.282.918-2.386 2.183-2.625 2.338-.462 5.134-.627 6.817-.627 1.637 0 3.441.122 5.08.342l-.2 1.486c-1.575-.211-3.308-.328-4.88-.328-1.615 0-4.294.157-6.532.599-.564.107-.968.59-.968 1.152v6.497c0 .562.404 1.046.961 1.151 2.519.475 5.198.668 7.825.578l.052 1.499c-.443.016-.889.024-1.338.024z" fill="#333333" data-original="#000000" style="" class=""/></g></svg>
