<?xml version="1.0"?>
<svg xmlns="http://www.w3.org/2000/svg" xmlns:xlink="http://www.w3.org/1999/xlink" xmlns:svgjs="http://svgjs.com/svgjs" version="1.1" width="512" height="512" x="0" y="0" viewBox="0 0 36 36" style="enable-background:new 0 0 512 512" xml:space="preserve" class=""><g><path xmlns="http://www.w3.org/2000/svg" d="m4.167 8.377c0 6.917-3.583 11.667-3.583 15s1.916 10.333 17.249 10.333 17.583-9.417 17.583-13.083c.001-17.167-31.249-24.5-31.249-12.25z" fill="#f2f5f7" data-original="#efefef" style="" class=""/><path xmlns="http://www.w3.org/2000/svg" d="m28.625 1.25h1v2h-1z" fill="#333333" data-original="#a4afc1" style="" class=""/><path xmlns="http://www.w3.org/2000/svg" d="m30.875 4.25h2v1h-2z" fill="#333333" data-original="#a4afc1" style="" class=""/><g xmlns="http://www.w3.org/2000/svg" fill="#2fdf84"><circle cx="23" cy="11" r="1.25" fill="#008efe" data-original="#2fdf84" style="" class=""/><circle cx="19" cy="16" r="1.25" fill="#008efe" data-original="#2fdf84" style="" class=""/><circle cx="13" cy="13" r="1.25" fill="#008efe" data-original="#2fdf84" style="" class=""/></g><path xmlns="http://www.w3.org/2000/svg" d="m29.25 16.706-10.32 5.314c-.58.3-1.28.3-1.86 0l-10.32-5.51v-2.192c0-.352.185-.679.488-.859l3.845-2.292h13.667l3.998 2.295c.311.178.502.509.502.867z" fill="#f2f5f7" data-original="#f3f3f1" style="" class=""/><path xmlns="http://www.w3.org/2000/svg" d="m9.75 6.75h16.25v17h-16.25z" fill="#008efe" data-original="#2fdf84" style="" class=""/><path xmlns="http://www.w3.org/2000/svg" d="m29.25 16.51v10.24c0 .83-.67 1.5-1.5 1.5h-19.5c-.83 0-1.5-.67-1.5-1.5v-10.24l10.32 5.51c.58.3 1.28.3 1.86 0z" fill="#f2f5f7" data-original="#f3f3f1" style="" class=""/><path xmlns="http://www.w3.org/2000/svg" d="m24 11c0-.19.049-.365.125-.526-.2-.425-.625-.724-1.125-.724-.69 0-1.25.56-1.25 1.25s.56 1.25 1.25 1.25c.5 0 .925-.299 1.125-.724-.076-.161-.125-.336-.125-.526z" fill="#0b79d1" data-original="#00b871" style="" class=""/><path xmlns="http://www.w3.org/2000/svg" d="m20 16c0-.19.049-.365.125-.526-.2-.425-.625-.724-1.125-.724-.69 0-1.25.56-1.25 1.25s.56 1.25 1.25 1.25c.5 0 .925-.299 1.125-.724-.076-.161-.125-.336-.125-.526z" fill="#0b79d1" data-original="#00b871" style="" class=""/><path xmlns="http://www.w3.org/2000/svg" d="m14 13c0-.19.049-.365.125-.526-.2-.425-.625-.724-1.125-.724-.69 0-1.25.56-1.25 1.25s.56 1.25 1.25 1.25c.5 0 .925-.299 1.125-.724-.076-.161-.125-.336-.125-.526z" fill="#0b79d1" data-original="#00b871" style="" class=""/><path xmlns="http://www.w3.org/2000/svg" d="m9.75 16.91-.75-.4v-2.192c0-.352.185-.679.488-.859l.262-.156v-1.341l-2.512 1.498c-.303.18-.488.507-.488.859v2.192l3 1.602z" fill="#d2d6d8" data-original="#d5dbe1" style="" class=""/><path xmlns="http://www.w3.org/2000/svg" d="m12 19.313v-12.563h-2.25v11.362z" fill="#0b79d1" data-original="#00b871" style="" class=""/><path xmlns="http://www.w3.org/2000/svg" d="m9 26.75v-9.039l-2.25-1.201v10.24c0 .83.67 1.5 1.5 1.5h2.25c-.83 0-1.5-.67-1.5-1.5z" fill="#d2d6d8" data-original="#d5dbe1" style="" class=""/><path xmlns="http://www.w3.org/2000/svg" d="m23 13c-1.103 0-2-.897-2-2s.897-2 2-2 2 .897 2 2-.897 2-2 2zm0-2.5c-.275 0-.5.225-.5.5s.225.5.5.5.5-.225.5-.5-.225-.5-.5-.5z" fill="#333333" data-original="#000000" style="" class=""/><path xmlns="http://www.w3.org/2000/svg" d="m19 18c-1.103 0-2-.897-2-2s.897-2 2-2 2 .897 2 2-.897 2-2 2zm0-2.5c-.275 0-.5.225-.5.5s.225.5.5.5.5-.225.5-.5-.225-.5-.5-.5z" fill="#333333" data-original="#000000" style="" class=""/><path xmlns="http://www.w3.org/2000/svg" d="m13 15c-1.103 0-2-.897-2-2s.897-2 2-2 2 .897 2 2-.897 2-2 2zm0-2.5c-.275 0-.5.225-.5.5s.225.5.5.5.5-.225.5-.5-.225-.5-.5-.5z" fill="#333333" data-original="#000000" style="" class=""/><path xmlns="http://www.w3.org/2000/svg" d="m19.285 12.75h3.43v1.5h-3.43z" transform="matrix(.624 -.782 .782 .624 -2.652 21.489)" fill="#333333" data-original="#000000" style="" class=""/><path xmlns="http://www.w3.org/2000/svg" d="m15.25 12.635h1.501v3.73h-1.501z" transform="matrix(.445 -.896 .896 .445 -4.106 22.373)" fill="#333333" data-original="#000000" style="" class=""/><path xmlns="http://www.w3.org/2000/svg" d="m27.75 29h-19.5c-1.24 0-2.25-1.01-2.25-2.25v-12.1c0-.827.453-1.585 1.184-1.98l2.213-1.182.707 1.324-2.21 1.18c-.239.128-.394.388-.394.658v12.1c0 .413.337.75.75.75h19.5c.413 0 .75-.337.75-.75v-12.1c0-.271-.155-.53-.396-.66l-2.207-1.178.707-1.324 2.21 1.18c.733.397 1.186 1.155 1.186 1.982v12.1c0 1.24-1.01 2.25-2.25 2.25z" fill="#333333" data-original="#000000" style="" class=""/><path xmlns="http://www.w3.org/2000/svg" d="m17.999 22.996c-.438 0-.875-.104-1.274-.311l-10.323-5.39.695-1.33 10.32 5.39c.365.19.803.188 1.166-.001l10.318-5.389.695 1.33-10.32 5.39c-.399.207-.839.311-1.277.311z" fill="#333333" data-original="#000000" style="" class=""/><path xmlns="http://www.w3.org/2000/svg" d="m27 18.2h-1.5v-9.45c0-.689-.561-1.25-1.25-1.25h-12.5c-.689 0-1.25.561-1.25 1.25v9.45h-1.5v-9.45c0-1.517 1.233-2.75 2.75-2.75h12.5c1.517 0 2.75 1.233 2.75 2.75z" fill="#333333" data-original="#000000" style="" class=""/></g></svg>
