<?xml version="1.0" encoding="UTF-8"?>
<!DOCTYPE svg PUBLIC "-//W3C//DTD SVG 1.1//EN" "http://www.w3.org/Graphics/SVG/1.1/DTD/svg11.dtd">
<!-- Creator: CorelDRAW 2019 (64-Bit) -->
<svg xmlns="http://www.w3.org/2000/svg" xml:space="preserve" width="186.684mm" height="46.7714mm" version="1.1" shape-rendering="geometricPrecision" text-rendering="geometricPrecision" image-rendering="optimizeQuality" fill-rule="evenodd" clip-rule="evenodd"
viewBox="0 0 18654.11 4673.57"
 xmlns:xlink="http://www.w3.org/1999/xlink">
 <g id="Слой_x0020_1">
  <metadata id="CorelCorpID_0Corel-Layer"/>
  <g id="_2508002749440">
   <path fill="black" d="M6461.71 2994.59c-86.06,0 -111.17,3.27 -198.78,-18.35 -72.47,-17.88 -130.02,-54.08 -180.16,-103.81 -194.25,-192.69 -198.8,-798.95 -40.36,-1032.33 117.76,-173.48 319.65,-223.23 524.12,-182.45 19.79,3.96 37.75,8.16 56.58,14.42 62.65,20.82 91.09,44.64 138.62,82.69 79.58,63.71 126.69,187.95 147.15,291.37 38.74,195.87 32.89,451.49 -31.13,642.07 -33.17,98.76 -105.56,187.72 -191.33,242.98 -50.55,32.57 -142.75,63.41 -224.71,63.41zm-45.93 329.95c122.44,0 231.97,-21.73 342.92,-62.11 16.08,-5.86 24.55,-12.6 45.41,-13.06 4.31,16.14 17.13,23.42 28.19,34.45 12.16,12.14 21.24,21.25 33.4,33.41l50.09 45.94c36.83,34.26 127.25,99.65 170.9,125.59 55.97,33.26 109.38,64.85 171.33,91.75 58.68,25.49 137.85,57.26 214.17,57.26 71.09,0 62.14,-208.86 52.06,-265.08 -5.86,-32.62 -12.84,-53.71 -34.59,-69.81 -15.74,-11.65 -106.44,-43.7 -145.52,-63.28 -25.39,-12.72 -45.17,-23.73 -68.2,-36.19 -61.17,-33.09 -99.08,-63.59 -152.73,-106.18 -15.11,-12 -13.18,-13.87 -30.99,-23.29 5.1,-7.62 19.03,-24.9 26.06,-32.41 53.63,-57.23 86.25,-117.59 121.51,-187.54l36.18 -89.09c108.91,-296.19 99.74,-777.32 -52.84,-1058.18 -24.28,-44.7 -35.96,-62.86 -65.87,-101.17 -142.78,-182.94 -341.02,-254.66 -565.44,-278.09 -200.43,-20.92 -380.15,-4.7 -564.96,71.07 -28.36,11.63 -52.77,24.69 -78.79,38.13 -35.35,18.27 -112.78,73 -138.83,99.19 -37.6,37.8 -54.12,51.09 -87.15,92.41l-71.83 107.76c-7.39,14.58 -13.37,23.89 -20.2,38.27 -64.75,136.31 -81.8,219.59 -103.88,372.21 -5.99,41.32 -5.16,130.26 -11.2,172.68 -3.7,25.87 1.97,32.04 3.11,53.08 1.01,18.5 -0.19,39.82 -0.16,58.64l8.6 112.5c5.77,67.17 19.98,141.72 36,202.06 30.62,115.35 88.84,246.16 171.55,333.77l43.55 44.16c176.2,155.49 401.25,201.16 638.16,201.16z"/>
   <path fill="black" d="M10716.52 2973.71l-229.65 0 0 -1307.26c330.1,0 656.52,-12.28 769.83,370.18 58.89,198.8 48.03,480.02 -39.89,664.84 -17.68,37.17 -50.53,83.88 -77.55,114.55 -100.09,113.61 -266.62,157.69 -422.74,157.69zm-622.14 -1503.56l0 1704.04c0,44.29 20.72,83.43 57.17,101.53 10.04,4.99 29.64,11.24 43.05,11.24l555.34 0c251.41,0 522.9,-69.88 698.35,-245.38 179.59,-179.64 253.67,-435.46 253.67,-694.35 0,-249.62 -20.07,-433.89 -158.66,-643.21 -43.55,-65.79 -111.83,-135.18 -176.17,-178.79 -46.32,-31.41 -60.83,-40.91 -109.92,-65.47 -154.53,-77.35 -356.24,-106.55 -544.85,-106.55l-501.06 0c-69.03,0 -116.91,47.12 -116.91,116.94z"/>
   <path fill="black" d="M16503.74 2998.77c-59.99,0 -77.12,1.62 -135.08,-27.77 -20.74,-10.52 -54.99,-35.22 -70.62,-50.49 -12.4,-12.11 -19.43,-16.22 -31.34,-27.14 -13.7,-12.56 -17.64,-20.34 -29.2,-33.43 -10.31,-11.68 -55.29,-56.08 -55.29,-69.99l0 -434.37c0,-12.27 85.91,-106.91 101.44,-119.89 64.08,-53.6 112.94,-93.12 215.9,-93.12 189.53,0 250.53,232.44 250.53,396.78 0,90.63 2.59,119.55 -18.31,211.4 -10.43,45.88 -22.94,79.64 -42.96,115.74 -16.91,30.48 -46.02,66.15 -71.7,87 -24.89,20.22 -70.05,45.28 -113.39,45.28zm-701.48 -1729.1l0 1975.52c0,67.3 165.12,51.55 229.77,50.23 120.14,-2.43 91.74,-64.84 91.74,-196.41 24.33,16.3 59.95,59.82 84.5,82.54 9.21,8.52 13.41,10.22 22.98,18.78 129.01,115.25 307.46,148.29 477.19,107.62 162.16,-38.86 270.39,-145.26 343.69,-291.07 9.12,-18.17 17.4,-35.22 24.77,-54.58 68.07,-178.89 65.69,-295.71 65.69,-481.42 0,-72.43 -19.41,-180.04 -36.67,-247.32 -19.03,-74.12 -51.67,-144.31 -88.59,-199.57 -78.47,-117.47 -215.29,-213.01 -363.26,-213.01 -138.62,0 -231.34,0.24 -355.54,87.08 -43.38,30.33 -102.98,83.6 -116.29,92.51 0,-59.87 4.55,-710.33 -2.33,-736.93 -14.69,-56.82 -139.59,-56.62 -189.75,-56.62 -63.86,0 -187.9,5.01 -187.9,62.64z"/>
   <path fill="black" d="M12307.38 2568.59c0,-62.38 6.63,-124.02 18.46,-177.85 35.97,-163.87 133.2,-273.22 311.41,-273.22 108.4,0 199.6,42.6 253.01,131.17 79.41,131.7 79.87,342.34 50.69,502.56 -9.41,51.72 -29.94,97.27 -54.42,137.69 -85.14,140.58 -287.44,161.78 -411.53,96.71 -39.28,-20.6 -78.74,-57.7 -99.45,-96.81 -51.58,-97.39 -68.17,-203.71 -68.17,-320.25zm-388.31 -12.53c0,222.41 27.99,422.85 177.4,582.67 4.57,4.88 6.67,6.82 10.54,10.34 0.64,0.58 1.59,1.37 2.24,1.94l9 7.7c9.65,8.64 13.27,13.79 23.85,22.07 178.46,139.77 419.38,163.82 640.12,130.06 96.35,-14.74 187.44,-48.62 267.6,-99.87 77.7,-49.68 131.27,-108.46 182.08,-185.41l32.93 -58.94c69.43,-160.11 82.24,-250.01 82.24,-439.8 0,-193.09 -45.49,-366.55 -158.01,-506.02 -100.9,-125.06 -308.4,-199.82 -468.31,-199.82 -109.33,0 -116.93,-3.39 -221.65,7.99 -27.65,3.01 -48.93,7.48 -74.02,13.67 -133.44,32.89 -238.38,93.79 -329.66,192.33 -7.48,8.09 -11.68,14.61 -18.66,23.1 -48.26,58.75 -81.16,125.06 -107.57,197.29 -28.73,78.55 -50.13,193.6 -50.13,300.69z"/>
   <path fill="black" d="M17267.85 1912.87c0,50.29 127.2,367.58 153.86,439.16l325.65 868.76c13.97,35.4 26.14,46.87 54.95,66.17 -1.32,15.9 -36.01,94.98 -44.37,118.5l-94.03 235.9c-35.1,87.24 -80.94,155.08 -1.01,177.63 70.79,19.96 253.85,13.96 318.44,-10.48 49.97,-18.91 56.69,-44.43 74.1,-97.12 28.62,-86.57 56.8,-167.08 85.56,-252.72 6.77,-20.16 13.99,-39.61 21.41,-62.11l151.89 -445.31c28.96,-86.87 57.01,-166.79 85.61,-252.67 14.08,-42.26 28.86,-83.58 43.88,-127.35l172.19 -508.55c12.64,-37.95 34.34,-85.8 38.11,-126.52l0 -22.49c-2.87,-26.21 -17.1,-47.29 -52.02,-57.36l-148.44 -14.69c-21.5,0.74 -25.67,4.58 -49.93,4.56 -116.99,-0.11 -114.31,16.81 -155.52,166.03 -7.49,27.18 -17.22,51.93 -25.93,82.66l-180.34 571.38c-6.35,19.05 -42.85,151.71 -55.9,161.28 -1.83,-22.04 -102.91,-298.03 -113.26,-329.42l-173.08 -490.95c-20.41,-52.7 -31.8,-127.39 -72.84,-148.5 -37.51,-19.29 -296.35,-26.84 -340.62,14.1 -7.36,6.81 -18.38,28.63 -18.38,40.11z"/>
   <path fill="black" d="M7672.6 1912.87l0 768.48c0,174.39 10.32,372.54 132.51,502.3 37,39.29 65.51,65.32 120.69,92.29 26.71,13.05 75.76,29.93 106.36,35.61 195.87,36.4 326.79,-5.9 477.39,-118.81 11.69,-8.77 14,-12.36 24.99,-20.95 11.16,-8.72 12.52,-9.71 22.2,-19.56 23.33,-23.72 19.33,-13.86 57.21,-55.54l10.67 -10.21c0,48.79 -0.4,97.7 -0.28,146.46 0.16,67.03 79.82,59.28 121.15,62.59 81.78,6.55 34.04,1.27 104.7,-0.13 20.29,-0.4 48.06,-6.62 62.62,-12.54 17.69,-7.18 33.32,-17.3 33.32,-41.85l0 -1340.69c0,-68.7 -217.72,-62.24 -282.94,-53.29 -29.23,4.01 -70.05,11.71 -84.63,32.3 -15.28,21.56 -8.23,183.89 -8.23,221.48 0,101.38 5.95,676.6 -3.46,694.02l-53.95 58.81c-60.96,60.96 -122.42,126.73 -213.97,136.87 -147.96,16.37 -222.8,-84.19 -240.5,-214.81 -11.63,-85.94 -5.89,-661.47 -5.89,-804.37 0,-63.51 20.03,-119.43 -104.34,-125.34l-110.37 -1.72c-19.56,2.99 -36.83,1.11 -56.85,1.62 -18.39,0.47 -35.25,4.73 -50.45,8.01 -33.16,7.16 -57.97,19.08 -57.97,58.96z"/>
   <path fill="black" d="M13468.16 1887.81c0,49.81 77.63,167.17 105.78,219.96l44.73 80.56c7.75,13.38 16.94,28.77 24.68,42.14l179.73 325.59c-5.66,6.51 -8.94,10.37 -13.94,19.47l-270.21 481.5c-20.15,34.98 -94.21,154.75 -97.2,186.77 -2,21.36 6.51,30.94 29.15,40.45 46.9,19.67 199.68,14.31 264.55,11.1 100.13,-4.96 98.91,-56.33 146.32,-141.83 34.15,-61.6 65.5,-124.85 98.56,-189.6 8.68,-17 16.12,-29.15 25.08,-45.91 12.75,-23.87 62.24,-130.09 76.57,-140.59l50.07 100.27c8.61,16.5 17.45,30.88 26.52,48.65 9.81,19.22 16.54,33.77 26.35,52.99l132.31 251.91c36.96,73.24 62.48,58.27 169.79,64.05 23.23,1.26 41.56,4.43 71.11,4.35l143.59 -10.91c86.37,-18.11 39.98,-77.16 5.2,-142.38l-237.42 -430.77c-22.9,-37.64 -71.07,-135.94 -95.23,-172.04 3.99,-4.6 -0.18,1.63 5.32,-7.21 2.57,-4.14 3.56,-6.36 5.87,-10.83l189.24 -345.32c24.06,-48.92 150.32,-255.11 150.32,-292.36 0,-35.79 -60.49,-42.1 -100.18,-41.79 -28.93,0.22 -44.07,-2.88 -66.83,-4.19 -29.12,-1.69 -42.99,3.65 -66.68,4.34 -27.93,0.82 -43.99,-1.24 -67.44,3.55 -63.68,12.97 -59.75,20.16 -103.86,109.12l-98.82 185.16c-14.07,26.31 -89.23,177.44 -101.62,186.53l-154.52 -288.16c-8.85,-16.97 -15.59,-32.5 -25.83,-49.33 -10.22,-16.79 -15.67,-31.89 -26.01,-49.16 -18.19,-30.39 -28.66,-71.51 -60.72,-85.44 -33.23,-14.46 -384.3,-36.07 -384.3,29.39z"/>
   <path fill="#008EFE" d="M3204.84 4100.77c6.42,4.68 -1.49,1.57 9.17,3.84l1777.93 0.96 -63.56 -124.37c-45.8,-82.77 -126.53,-247.05 -166.9,-313.36 -12.66,-20.8 -21.44,-42.38 -32.6,-63.46l-1232.08 0 -72.45 127.75c-17.42,30.3 -204.58,359.66 -219.51,368.65z"/>
   <polygon fill="#777777" points="1497.07,3049.56 2089.98,4105.56 2653.67,4093.03 1789.35,2551.88 "/>
   <polygon fill="#B5E000" points="2676.55,2117.51 2387.84,1620.5 1154.68,1620.5 891.63,2117.51 "/>
   <polygon fill="#6A9900" points="2387.84,1620.5 2676.55,2117.51 3543.05,580.54 2979.36,568.01 "/>
   <polygon fill="#111111" points="265.31,3047.67 1497.07,3049.56 1789.35,2551.88 -0,2551.76 "/>
   <path fill="#006BBD" d="M3204.84 4100.77c14.93,-8.99 202.1,-338.35 219.51,-368.65l72.45 -127.75c-21.19,-43.75 -47.66,-88.29 -73.06,-131.24 -13.35,-22.56 -22.82,-42.46 -35.98,-64.25 -62.78,-104 -124.2,-225.28 -185.32,-328.35 -26.28,-44.33 -48.95,-85.71 -74.05,-130.59l-183.72 -325.77c-9.07,-16.22 -32.84,-53.33 -36.29,-68.11 -47.32,0 -94.64,0.03 -141.96,0 -110.91,-0.07 -233.53,8.78 -354.93,8.33 -30.05,-0.11 -45.97,4.2 -70.98,4.2 74.28,140.41 166.94,291.24 242.19,430.18 8.38,15.49 17.05,31.95 26.81,48.35 116.49,195.77 234.89,426.41 351.39,621.67l243.94 431.98z"/>
   <path fill="black" d="M9321.92 1904.51l0 1328.16c0,57.87 79.92,63.05 125.3,62.6 64.32,-0.64 111.68,0.61 178.97,-4.66 33.56,-5.73 75.69,-14.27 75.69,-53.77l0 -1328.15c0,-36.03 -37.5,-49.05 -69.86,-55.43 -78.84,-14.26 -156.63,-15.12 -233.25,-1.34 -32.78,6.56 -76.86,16.95 -76.86,52.58z"/>
   <polygon fill="#B5E000" points="1772.15,648.17 2156.02,1286.63 2499.18,639.01 2115.04,0 "/>
   <polygon fill="#006BBD" points="3729.94,3274.43 4461.66,3278.6 4849.98,2631.23 4113.74,2631.23 "/>
   <polygon fill="black" points="884.36,4030.38 1217.31,4673.57 1610.98,4030.38 1266.36,3387.19 "/>
   <polygon fill="#767676" points="884.36,4030.38 1266.36,3387.19 532.53,3387.33 148.39,4030.38 "/>
   <polygon fill="#008EFE" points="3729.94,3274.43 4113.74,2631.23 3772.71,1983.86 3386.36,2631.23 "/>
   <path fill="#6A9900" d="M1421.9 1284.72l734.12 1.91 -383.88 -638.45 -734.38 0.03c6.12,23.72 52.35,89.52 68.25,118.84 8.39,15.52 15.7,26.9 25.3,41.51 34.6,52.64 61.27,106.11 96.06,158.7l194.53 317.47z"/>
   <path fill="black" d="M14983.86 3057.24c0,198.91 35.32,250.59 242.18,250.59 68.79,0 129.17,-16.76 161.7,-55.44 52.31,-62.24 63.71,-268.03 0.71,-353.42 -46.8,-63.43 -210.3,-64.57 -288.62,-43.16 -29.83,8.14 -48.37,17.37 -67.64,36.76 -35.01,35.25 -48.32,96.63 -48.32,164.66z"/>
   <path fill="black" d="M9292.69 1453.44c0,68.47 7.5,128.92 51.22,165.94 55.16,46.7 192.83,41.71 260.79,29.22 24.8,-4.56 58.49,-17.45 75.42,-33.15 75.08,-69.67 60.24,-269.02 1.7,-317.36 -65.37,-53.96 -274.85,-55.15 -335.93,-0.25 -22.38,20.11 -30.73,33.42 -40.3,64.1 -7.44,23.86 -12.9,60.76 -12.9,91.5z"/>
  </g>
 </g>
</svg>
