<svg width="115" height="82" viewBox="0 0 115 82" fill="none" xmlns="http://www.w3.org/2000/svg">
<path d="M11 0C6.58172 0 3 3.58172 3 8V72C3 72 6.58173 80 11 80H95C99.4183 80 103 76.4183 103 72V19C103 14.5817 99.4183 11 95 11H65.1035C60.2474 11 55.603 9.01263 52.25 5.5C48.897 1.98737 44.2526 0 39.3965 0H11Z" fill="#008EFE"/>
<rect x="7" y="16" width="92" height="60" rx="4" fill="white"/>
<path d="M2.02658 79.771L1.7374 81H3H103H103.792L103.973 80.229L113.66 39.0614C114.989 33.412 110.703 28 104.899 28H21.3361C17.1597 28 13.5319 30.8732 12.5754 34.9387L2.02658 79.771Z" fill="#008EFE" stroke="white" stroke-width="2"/>
</svg>
