<svg width="97" height="91" viewBox="0 0 97 91" fill="none" xmlns="http://www.w3.org/2000/svg">
<path d="M93.0227 27.2894L52.5681 4.85163C51.2676 4.13319 49.8062 3.75635 48.3204 3.75635C46.8347 3.75635 45.3732 4.13319 44.0727 4.85163L3.4448 27.2894C3.00807 27.5416 2.64493 27.9036 2.39147 28.3396C2.138 28.7755 2.00304 29.2702 2 29.7745H2C2.03889 30.2414 2.19073 30.6918 2.44242 31.087C2.69412 31.4822 3.03813 31.8102 3.4448 32.0428L43.8993 54.8274C45.1963 55.5565 46.6592 55.9394 48.147 55.9394C49.6349 55.9394 51.0977 55.5565 52.3948 54.8274L93.0227 32.0428C93.4293 31.8102 93.7733 31.4822 94.025 31.087C94.2767 30.6918 94.4286 30.2414 94.4675 29.7745C94.4644 29.2702 94.3294 28.7755 94.076 28.3396C93.8225 27.9036 93.4594 27.5416 93.0227 27.2894Z" fill="#008EFE"/>
<path d="M19.086 1H66.3126L80.7528 15.4402V37.9376L52.023 54.6531C50.8658 55.2976 49.5609 55.6363 48.2333 55.6363C46.9058 55.6363 45.6008 55.2976 44.4437 54.6531L15.7139 37.9376V4.34331C15.7139 3.45875 16.0675 2.60907 16.6992 1.98157C17.3311 1.35383 18.1895 1 19.086 1Z" fill="white" stroke="#008EFE" stroke-width="2"/>
<path d="M71.2344 15.026H81.7525L66.7266 0V10.5182C66.7266 11.7137 67.2015 12.8603 68.0469 13.7057C68.8922 14.551 70.0388 15.026 71.2344 15.026Z" fill="#008EFE"/>
<path d="M95.5 32.0004V31.9998V30.917V29.917H94.5C94.2579 29.917 94.0636 29.9976 93.9848 30.032C93.8814 30.0771 93.7854 30.1312 93.7076 30.1784C93.5511 30.2732 93.3831 30.3922 93.2365 30.4988C93.1405 30.5686 93.0536 30.6327 92.975 30.6906C92.7748 30.8382 92.6293 30.9454 92.5285 31.0035C92.5277 31.0039 92.5269 31.0044 92.5261 31.0048L52.0781 53.7857C52.0779 53.7858 52.0777 53.7859 52.0775 53.786C50.9302 54.4308 49.6364 54.7694 48.3204 54.7694C47.0042 54.7694 45.7101 54.4306 44.5627 53.7857L44.5618 53.7852L3.94135 31.0048C3.94024 31.0042 3.93913 31.0036 3.938 31.0029C3.77207 30.9076 3.44499 30.6923 3.13007 30.4793C2.97795 30.3764 2.83797 30.2805 2.73593 30.2102L2.61513 30.1267L2.58248 30.104L2.57417 30.0983L2.57215 30.0969L2.57169 30.0965L2.57161 30.0965L2.5716 30.0965L2.5716 30.0965L1 29.0016V30.917L2 30.917L1 30.917V30.917V30.9171V30.9172V30.9173V30.9174V30.9175V30.9178V30.9183V30.92V30.921V30.9216V30.9222V30.9376V30.996V31.2074V31.8729V84.9111C1 86.2607 1.53614 87.5551 2.49047 88.5094C3.44481 89.4638 4.73916 89.9999 6.0888 89.9999H90.3787C91.7283 89.9999 93.0226 89.4638 93.977 88.5094C94.9312 87.5553 95.4673 86.2611 95.4675 84.9117C95.4675 84.9115 95.4675 84.9113 95.4675 84.9111L95.5 32.0004Z" fill="#008EFE" stroke="white" stroke-width="2"/>
<path d="M48.2333 22.5391C45.9342 22.5391 43.7292 23.4524 42.1035 25.0781C40.4778 26.7038 39.5645 28.9088 39.5645 31.2079V34.0975H42.4541V31.2079C42.4541 29.6751 43.0629 28.2052 44.1468 27.1214C45.2306 26.0375 46.7005 25.4287 48.2333 25.4287C49.766 25.4287 51.236 26.0375 52.3198 27.1214C53.4036 28.2052 54.0125 29.6751 54.0125 31.2079V57.2144C54.0125 58.7471 53.4036 60.2171 52.3198 61.3009C51.236 62.3847 49.766 62.9936 48.2333 62.9936C46.7005 62.9936 45.2306 62.3847 44.1468 61.3009C43.0629 60.2171 42.4541 58.7471 42.4541 57.2144V42.7663C42.4541 41.9999 42.7585 41.265 43.3004 40.7231C43.8423 40.1811 44.5773 39.8767 45.3437 39.8767C46.11 39.8767 46.845 40.1811 47.3869 40.7231C47.9288 41.265 48.2333 41.9999 48.2333 42.7663V52.8799C48.2333 53.2631 48.3855 53.6306 48.6564 53.9016C48.9274 54.1725 49.2949 54.3247 49.6781 54.3247C50.0613 54.3247 50.4288 54.1725 50.6997 53.9016C50.9707 53.6306 51.1229 53.2631 51.1229 52.8799V42.7663C51.1229 41.2336 50.514 39.7636 49.4302 38.6798C48.3464 37.596 46.8764 36.9871 45.3437 36.9871C43.8109 36.9871 42.341 37.596 41.2571 38.6798C40.1733 39.7636 39.5645 41.2336 39.5645 42.7663V57.2144C39.5645 59.5135 40.4778 61.7184 42.1035 63.3441C43.7292 64.9699 45.9342 65.8832 48.2333 65.8832C50.5324 65.8832 52.7373 64.9699 54.3631 63.3441C55.9888 61.7184 56.9021 59.5135 56.9021 57.2144V31.2079C56.9021 28.9088 55.9888 26.7038 54.3631 25.0781C52.7373 23.4524 50.5324 22.5391 48.2333 22.5391Z" fill="#008EFE"/>
</svg>
