<svg width="19" height="18" viewBox="0 0 19 18" fill="none" xmlns="http://www.w3.org/2000/svg">
<g clip-path="url(#clip0)">
<path d="M17.8571 7.63142H15.6875V5.34927C15.6875 4.99369 15.4002 4.70642 15.0446 4.70642H8.71652L6.36004 2.4524C6.33006 2.42433 6.29062 2.40856 6.24955 2.4082H1.14286C0.787277 2.4082 0.5 2.69548 0.5 3.05106V14.9439C0.5 15.2995 0.787277 15.5868 1.14286 15.5868H15.1652C15.4263 15.5868 15.6634 15.4281 15.7618 15.185L18.4538 8.51535C18.4839 8.43901 18.5 8.35664 18.5 8.27427C18.5 7.91869 18.2127 7.63142 17.8571 7.63142ZM1.94643 3.85463H5.73326L8.13594 6.15285H14.2411V7.63142H3.99554C3.73438 7.63142 3.49732 7.79012 3.39888 8.0332L1.94643 11.6332V3.85463ZM14.7092 14.1403H2.40848L4.48371 8.99749H16.7864L14.7092 14.1403Z" fill="white"/>
</g>
<defs>
<clipPath id="clip0">
<rect width="18" height="18" fill="white" transform="translate(0.5)"/>
</clipPath>
</defs>
</svg>
